<svg width="270" height="270" viewBox="0 0 270 270" fill="none" xmlns="http://www.w3.org/2000/svg">
<rect width="270" height="270" fill="#72C04F"/>
<path d="M176.699 91.1817L127.951 91.275V57H116.077V103.094L148.002 103.032L103.702 147.011C97.9374 135.845 86.2516 128.163 72.7799 128.163H40.2288V167.507C40.2288 186.511 55.7994 202 74.973 202H107.524V162.624C107.524 161.753 107.462 160.882 107.399 160.012L176.699 91.1817ZM52.1026 167.476V139.919H72.7799C85.3743 139.919 95.6503 150.09 95.6503 162.624V180.944L83.1499 167.383L74.3777 175.314L88.1 190.181H74.973C62.3473 190.181 52.1026 180.011 52.1026 167.476Z" fill="white"/>
<path d="M40.2288 75.0063V116.706H52.1781V86.8535H104.673V75.0063H40.2288Z" fill="white"/>
<path d="M179.545 105.333L171.085 113.688L217.807 159.823V190.186H169.98V171.607L181.692 183.203L190.153 174.849L163.982 149.007L137.843 174.849L146.304 183.203L158.016 171.607V202H229.771V154.929L179.545 105.333Z" fill="white"/>
</svg>
