<svg width="1439" height="120" viewBox="0 0 1439 120" fill="none" xmlns="http://www.w3.org/2000/svg">
<path d="M93.996 50.4088V2.45095H114.157V117H93.996V68.1257H20.9901V117H0.829494V2.45095H20.9901V50.4088H93.996ZM263.247 117H241.712L229.417 90.7301H161.909L149.614 117H128.079L183.063 2.45095H208.263L263.247 117ZM195.663 18.4115L169.699 74.0823H221.628L195.663 18.4115ZM435.439 99.1303V2.45095H455.6V117H277.209V2.45095H297.37V99.1303H356.324V2.45095H376.485V99.1303H435.439ZM500.799 97.3739L573.805 2.45095H600.075V117H580.525V21.1606L506.908 117H481.249V2.45095H500.799V97.3739ZM655.813 2.45095H770.667V20.1679H723.32V117H703.159V20.1679H655.813V2.45095ZM839.567 119.138C826.687 119.138 815.257 116.669 805.279 111.731C795.351 106.741 787.638 99.7413 782.14 90.7301C776.642 81.7189 773.892 71.384 773.892 59.7255C773.892 48.0669 776.642 37.7321 782.14 28.7209C787.638 19.7097 795.351 12.7349 805.279 7.79658C815.257 2.80733 826.687 0.312701 839.567 0.312701C852.448 0.312701 863.852 2.80733 873.779 7.79658C883.758 12.7349 891.496 19.7097 896.994 28.7209C902.493 37.7321 905.242 48.0669 905.242 59.7255C905.242 71.384 902.493 81.7189 896.994 90.7301C891.496 99.7413 883.758 106.741 873.779 111.731C863.852 116.669 852.448 119.138 839.567 119.138ZM839.567 101.116C848.731 101.116 856.699 99.4358 863.47 96.0757C870.292 92.7156 875.536 87.93 879.201 81.7189C882.918 75.4569 884.776 68.1257 884.776 59.7255C884.776 51.3252 882.918 44.0195 879.201 37.8084C875.536 31.5464 870.292 26.7353 863.47 23.3752C856.699 20.0151 848.731 18.3351 839.567 18.3351C830.403 18.3351 822.41 20.0151 815.588 23.3752C808.817 26.7353 803.573 31.5464 799.857 37.8084C796.191 44.0195 794.358 51.3252 794.358 59.7255C794.358 68.1257 796.191 75.4569 799.857 81.7189C803.573 87.93 808.817 92.7156 815.588 96.0757C822.41 99.4358 830.403 101.116 839.567 101.116ZM1007.86 56.9763C1016.67 58.7073 1023.26 62.1183 1027.64 67.2093C1032.02 72.2495 1034.21 78.4097 1034.21 85.6899C1034.21 91.8501 1032.76 97.2976 1029.86 102.032C1026.96 106.716 1022.63 110.382 1016.87 113.029C1011.17 115.676 1004.27 117 996.18 117H919.813L928.825 58.1982L919.813 2.45095H993.43C1000.46 2.45095 1006.44 3.57098 1011.38 5.81106C1016.37 8.00022 1020.13 11.1821 1022.68 15.3568C1025.27 19.5315 1026.57 24.4953 1026.57 30.2482C1026.57 35.9502 1025.05 41.194 1021.99 45.9796C1018.94 50.7652 1014.23 54.4308 1007.86 56.9763ZM1006.26 32.9974C1006.26 28.67 1004.73 25.208 1001.68 22.6116C998.674 19.9642 994.449 18.6405 989.001 18.6405H941.807L947 50.4088H987.474C991.139 50.4088 994.372 49.7215 997.172 48.3469C1000.02 46.9723 1002.24 44.9868 1003.82 42.3904C1005.45 39.743 1006.26 36.612 1006.26 32.9974ZM993.889 100.81C1000.2 100.81 1005.11 99.3594 1008.63 96.4575C1012.14 93.5556 1013.9 89.4064 1013.9 84.0099C1013.9 78.3079 1011.81 73.8786 1007.63 70.7222C1003.46 67.5657 997.401 65.9875 989.459 65.9875H947L941.731 100.81H993.889ZM1170.99 117H1149.45L1137.16 90.7301H1069.65L1057.36 117H1035.82L1090.8 2.45095H1116.01L1170.99 117ZM1103.4 18.4115L1077.44 74.0823H1129.37L1103.4 18.4115ZM1245.58 2.45095C1253.99 2.45095 1261.34 3.97827 1267.65 7.03292C1273.97 10.0876 1278.83 14.3641 1282.24 19.8624C1285.7 25.3098 1287.43 31.5719 1287.43 38.6485C1287.43 45.725 1285.7 52.0125 1282.24 57.5109C1278.83 62.9583 1273.97 67.2093 1267.65 70.264C1261.34 73.3186 1253.99 74.8459 1245.58 74.8459H1205.11V117H1184.95V2.45095H1245.58ZM1244.82 57.4345C1249.35 57.4345 1253.27 56.6708 1256.58 55.1435C1259.94 53.6162 1262.51 51.4525 1264.29 48.6524C1266.08 45.8014 1266.97 42.4668 1266.97 38.6485C1266.97 34.8301 1266.08 31.521 1264.29 28.7209C1262.51 25.8699 1259.94 23.6807 1256.58 22.1534C1253.27 20.6261 1249.35 19.8624 1244.82 19.8624H1205.11V57.4345H1244.82ZM1364 44.4523C1372.5 44.4523 1379.93 45.9796 1386.3 49.0342C1392.71 52.038 1397.65 56.289 1401.11 61.7874C1404.57 67.2857 1406.3 73.6241 1406.3 80.8025C1406.3 87.93 1404.57 94.2429 1401.11 99.7413C1397.65 105.189 1392.71 109.44 1386.3 112.494C1379.93 115.498 1372.5 117 1364 117H1303.97V2.45095H1324.13V44.4523H1364ZM1363.08 100.658C1367.71 100.658 1371.74 99.8431 1375.15 98.214C1378.61 96.5848 1381.26 94.2938 1383.09 91.341C1384.92 88.3373 1385.84 84.8244 1385.84 80.8025C1385.84 76.7806 1384.92 73.2677 1383.09 70.264C1381.26 67.2093 1378.61 64.8675 1375.15 63.2383C1371.74 61.6092 1367.71 60.7946 1363.08 60.7946H1324.13V100.658H1363.08ZM1418.83 117V2.45095H1438.99V117H1418.83Z" fill="white"/>
</svg>
